<?xml version="1.0" encoding="utf-8"?>
<!-- Generator: Adobe Illustrator 18.0.0, SVG Export Plug-In . SVG Version: 6.00 Build 0)  -->
<!DOCTYPE svg PUBLIC "-//W3C//DTD SVG 1.1//EN" "http://www.w3.org/Graphics/SVG/1.1/DTD/svg11.dtd">
<svg version="1.1" id="Layer_1" xmlns="http://www.w3.org/2000/svg" xmlns:xlink="http://www.w3.org/1999/xlink" x="0px" y="0px"
	 viewBox="0 0 142 104" enable-background="new 0 0 142 104" xml:space="preserve">
<g>
	<path fill="#FFFFFF" d="M130,23.5H12C5.7,23.5,0.5,18.3,0.5,12v0C0.5,5.7,5.7,0.5,12,0.5h118c6.3,0,11.5,5.2,11.5,11.5v0
		C141.5,18.3,136.3,23.5,130,23.5z"/>
	<path fill="#FFFFFF" d="M130,63.5H12C5.7,63.5,0.5,58.3,0.5,52v0c0-6.3,5.2-11.5,11.5-11.5h118c6.3,0,11.5,5.2,11.5,11.5v0
		C141.5,58.3,136.3,63.5,130,63.5z"/>
	<path fill="#FFFFFF" d="M130,103.5H12c-6.3,0-11.5-5.2-11.5-11.5v0c0-6.3,5.2-11.5,11.5-11.5h118c6.3,0,11.5,5.2,11.5,11.5v0
		C141.5,98.3,136.3,103.5,130,103.5z"/>
</g>
</svg>
